FFmpeg version SVN-r25716, Copyright (c) 2000-2010 the FFmpeg developers  built on Nov 10 2010 12:23:18 with gcc 4.1.2 20080704 (Red Hat 4.1.2-48)  configuration: --enable-libmp3lame --enable-shared --disable-mmx --arch=x86_64  libavutil     50.33. 0 / 50.33. 0  libavcore      0.12. 1 /  0.12. 1  libavcodec    52.94. 4 / 52.94. 4  libavformat   52.84. 0 / 52.84. 0  libavdevice   52. 2. 2 / 52. 2. 2  libavfilter    1.59. 0 /  1.59. 0  libswscale     0.12. 0 /  0.12. 0Seems stream 0 codec frame rate differs from container frame rate: 1200.00 (1200/1) -> 15.00 (15/1)Input #0, mov,mp4,m4a,3gp,3g2,mj2, from '/RAID10/data/converted_video_files/15794.mov':  Metadata:    major_brand     : qt      minor_version   : 537199360    compatible_brands: qt    Duration: 00:00:10.00, start: 0.000000, bitrate: 6152 kb/s    Stream #0.0(eng): Video: h264, yuv420p, 512x512, 6146 kb/s, 15 fps, 15 tbr, 600 tbn, 1200 tbc[buffer @ 0x339be10] w:512 h:512 pixfmt:yuv420pOutput #0, flv, to '/RAID10/data/converted_video_files/15794.flv':  Metadata:    encoder         : Lavf52.84.0    Stream #0.0(eng): Video: flv, yuv420p, 512x512, q=2-31, 600 kb/s, 1k tbn, 24 tbcStream mapping:  Stream #0.0 -> #0.0Press [q] to stop encodingframe=   29 fps=  0 q=16.5 size=     396kB time=1.92 bitrate=1692.3kbits/s    frame=   58 fps= 56 q=14.3 size=     473kB time=3.83 bitrate=1011.2kbits/s    frame=   97 fps= 63 q=11.3 size=     622kB time=6.46 bitrate= 788.3kbits/s    frame=  134 fps= 66 q=14.1 size=     766kB time=8.92 bitrate= 703.7kbits/s    frame=  150 fps= 64 q=14.0 Lsize=     826kB time=9.96 bitrate= 679.6kbits/s    video:824kB audio:0kB global headers:0kB muxing overhead 0.309475%